<?xml version="1.0" encoding="utf-8"?>
<!-- Generator: Adobe Illustrator 23.0.4, SVG Export Plug-In . SVG Version: 6.00 Build 0)  -->
<svg version="1.1" id="Layer_1" xmlns="http://www.w3.org/2000/svg" xmlns:xlink="http://www.w3.org/1999/xlink" x="0px" y="0px"
	 viewBox="0 0 142.2 371.2" style="enable-background:new 0 0 142.2 371.2;" xml:space="preserve">
<path fill="#AEF3F7" d="M123.7,102.4c-5.1-6.6-10.3-13.4-15.2-22.9c-4.8-9.4-11.2-43-12.8-53c-0.1-0.3-0.2-0.9,0.1-1.3c2.1-2.8,2.9-5.9,2.9-9.5
	C98.8,7,92.3,0,84.5,0H57.8c-7.9,0-14.3,7-14.3,15.6c0,3.6,0.8,6.6,2.8,9.4c0.3,0.3,0.3,1.1,0.2,1.5c-1.6,10.2-7.9,43.6-12.7,53
	c-4.9,9.6-10.1,16.4-15.2,22.9C8.6,115.3,0,126.5,0,151v169.6c0,22.6,4.3,35.4,14.3,42.8c9.9,7.3,24.7,7.9,41.6,7.9c2.9,0,6,0,9.1,0
	c2,0,4,0,6,0c2.1,0,4.1,0,6.1,0c3.2,0,6.2,0,9.1,0c16.9,0,31.7-0.6,41.6-7.9c10-7.4,14.3-20.1,14.3-42.8V151
	C142.2,126.5,133.6,115.3,123.7,102.4L123.7,102.4z M131.2,320.6c0,18.5-3,28.9-9.8,33.9c-6.6,4.8-17.4,5.7-35.1,5.7
	c-2.9,0-5.9,0-9.1,0c-2,0-4,0-6.1,0c-2.1,0-4.1,0-6.1,0c-3.2,0-6.2,0-9.1,0c-33.4,0-44.9-1.9-44.9-39.6V151
	c0-20.7,6.8-29.6,16.3-41.8c5.1-6.6,11-14.2,16.3-24.7c6.2-12.2,14.1-54.8,14.3-60.4c0,0,0.1-1.9-0.1-2.6c-0.2-0.6-1.7-1.9-1.7-1.9
	c-1-0.9-1.6-2.3-1.6-3.9c0-2.5,1.5-4.6,3.3-4.6h26.7c1.7,0,3.3,2.2,3.3,4.6c0,1.6-0.6,3-1.6,3.9c0,0-1.4,1.2-1.6,1.8
	s-0.2,2.5-0.2,2.5c0,0.1,0,0.1,0,0.2c0.2,5.7,8.1,48.3,14.3,60.4c5.3,10.5,11.2,18,16.3,24.7c9.5,12.2,16.3,21.1,16.3,41.8
	L131.2,320.6L131.2,320.6z"/>
</svg>
